<svg xmlns="http://www.w3.org/2000/svg" viewBox="0 0 512 512" width="512" height="512">
  <defs>
    <linearGradient id="bg-grad" x1="0%" y1="0%" x2="100%" y2="100%">
      <stop offset="0%" stop-color="#1d4ed8"/>
      <stop offset="100%" stop-color="#0f172a"/>
    </linearGradient>
    <linearGradient id="db-shine" x1="0%" y1="0%" x2="0%" y2="100%">
      <stop offset="0%" stop-color="#ffffff" stop-opacity="1"/>
      <stop offset="100%" stop-color="#cbd5e1" stop-opacity="1"/>
    </linearGradient>
    <linearGradient id="arrow-grad" x1="0%" y1="100%" x2="0%" y2="0%">
      <stop offset="0%" stop-color="#0ea5e9"/>
      <stop offset="100%" stop-color="#38bdf8"/>
    </linearGradient>
  </defs>

  <rect width="512" height="512" rx="88" ry="88" fill="url(#bg-grad)"/>
  <rect width="512" height="512" rx="88" ry="88" fill="none" stroke="#1d4ed8" stroke-width="2" opacity="0.4"/>

  <ellipse cx="256" cy="348" rx="108" ry="26" fill="url(#db-shine)" opacity="0.85"/>
  <rect x="148" y="192" width="216" height="156" fill="url(#db-shine)" opacity="0.9"/>
  <ellipse cx="256" cy="192" rx="108" ry="26" fill="#ffffff"/>

  <line x1="148" y1="244" x2="364" y2="244" stroke="#0f172a" stroke-width="2.5" opacity="0.18"/>
  <ellipse cx="256" cy="244" rx="108" ry="18" fill="none" stroke="#0f172a" stroke-width="2.5" opacity="0.12"/>
  <line x1="148" y1="296" x2="364" y2="296" stroke="#0f172a" stroke-width="2.5" opacity="0.18"/>
  <ellipse cx="256" cy="296" rx="108" ry="18" fill="none" stroke="#0f172a" stroke-width="2.5" opacity="0.12"/>

  <rect x="148" y="192" width="8" height="156" fill="#0f172a" opacity="0.08" rx="4"/>
  <rect x="356" y="192" width="8" height="156" fill="#0f172a" opacity="0.08" rx="4"/>

  <rect x="244" y="88" width="24" height="80" rx="6" fill="url(#arrow-grad)"/>
  <polygon points="256,52 294,118 218,118" fill="url(#arrow-grad)"/>
  <ellipse cx="256" cy="100" rx="32" ry="32" fill="#38bdf8" opacity="0.12"/>
</svg>
